<svg width="100" height="100" viewBox="0 0 112 113" fill="none" xmlns="http://www.w3.org/2000/svg">
<path d="M111.91 73.1662V38.8814C111.91 37.4457 111.339 36.0688 110.324 35.0536C109.309 34.0384 107.932 33.468 106.496 33.468H37.9268C36.491 33.468 35.1141 34.0384 34.0989 35.0536C33.0837 36.0688 32.5134 37.4457 32.5134 38.8814V73.1662H111.91ZM72.2116 67.7528H68.6027C68.1241 67.7528 67.6651 67.5627 67.3267 67.2243C66.9883 66.8859 66.7982 66.427 66.7982 65.9484C66.7982 65.4698 66.9883 65.0108 67.3267 64.6724C67.6651 64.334 68.1241 64.1439 68.6027 64.1439H72.2116C72.6902 64.1439 73.1491 64.334 73.4875 64.6724C73.8259 65.0108 74.016 65.4698 74.016 65.9484C74.016 66.427 73.8259 66.8859 73.4875 67.2243C73.1491 67.5627 72.6902 67.7528 72.2116 67.7528ZM57.7759 56.9261C57.2973 56.9261 56.8383 56.7359 56.4999 56.3975C56.1615 56.0591 55.9714 55.6002 55.9714 55.1216C55.9714 54.643 56.1615 54.184 56.4999 53.8456C56.8383 53.5072 57.2973 53.3171 57.7759 53.3171H77.625C78.1036 53.3171 78.5625 53.5072 78.9009 53.8456C79.2393 54.184 79.4294 54.643 79.4294 55.1216C79.4294 55.6002 79.2393 56.0591 78.9009 56.3975C78.5625 56.7359 78.1036 56.9261 77.625 56.9261H57.7759ZM88.4518 67.7528H79.4294C78.9509 67.7528 78.4919 67.5627 78.1535 67.2243C77.8151 66.8859 77.625 66.427 77.625 65.9484C77.625 65.4698 77.8151 65.0108 78.1535 64.6724C78.4919 64.334 78.9509 64.1439 79.4294 64.1439H88.4518C88.9303 64.1439 89.3893 64.334 89.7277 64.6724C90.0661 65.0108 90.2562 65.4698 90.2562 65.9484C90.2562 66.427 90.0661 66.8859 89.7277 67.2243C89.3893 67.5627 88.9303 67.7528 88.4518 67.7528ZM99.2786 67.7528H95.6696C95.191 67.7528 94.7321 67.5627 94.3937 67.2243C94.0553 66.8859 93.8652 66.427 93.8652 65.9484C93.8652 65.4698 94.0553 65.0108 94.3937 64.6724C94.7321 64.334 95.191 64.1439 95.6696 64.1439H99.2786C99.7571 64.1439 100.216 64.334 100.555 64.6724C100.893 65.0108 101.083 65.4698 101.083 65.9484C101.083 66.427 100.893 66.8859 100.555 67.2243C100.216 67.5627 99.7571 67.7528 99.2786 67.7528ZM99.2786 56.9261H95.6696C95.191 56.9261 94.7321 56.7359 94.3937 56.3975C94.0553 56.0591 93.8652 55.6002 93.8652 55.1216C93.8652 54.643 94.0553 54.184 94.3937 53.8456C94.7321 53.5072 95.191 53.3171 95.6696 53.3171H99.2786C99.7571 53.3171 100.216 53.5072 100.555 53.8456C100.893 54.184 101.083 54.643 101.083 55.1216C101.083 55.6002 100.893 56.0591 100.555 56.3975C100.216 56.7359 99.7571 56.9261 99.2786 56.9261ZM90.2562 42.4903H99.2786C99.7571 42.4903 100.216 42.6805 100.555 43.0189C100.893 43.3573 101.083 43.8162 101.083 44.2948C101.083 44.7734 100.893 45.2324 100.555 45.5708C100.216 45.9092 99.7571 46.0993 99.2786 46.0993H90.2562C89.7777 46.0993 89.3187 45.9092 88.9803 45.5708C88.6419 45.2324 88.4518 44.7734 88.4518 44.2948C88.4518 43.8162 88.6419 43.3573 88.9803 43.0189C89.3187 42.6805 89.7777 42.4903 90.2562 42.4903ZM90.2562 55.1216C90.2562 55.6002 90.0661 56.0591 89.7277 56.3975C89.3893 56.7359 88.9303 56.9261 88.4518 56.9261H84.8428C84.3643 56.9261 83.9053 56.7359 83.5669 56.3975C83.2285 56.0591 83.0384 55.6002 83.0384 55.1216C83.0384 54.643 83.2285 54.184 83.5669 53.8456C83.9053 53.5072 84.3643 53.3171 84.8428 53.3171H88.4518C88.9303 53.3171 89.3893 53.5072 89.7277 53.8456C90.0661 54.184 90.2562 54.643 90.2562 55.1216ZM74.016 42.4903H83.0384C83.5169 42.4903 83.9759 42.6805 84.3143 43.0189C84.6527 43.3573 84.8428 43.8162 84.8428 44.2948C84.8428 44.7734 84.6527 45.2324 84.3143 45.5708C83.9759 45.9092 83.5169 46.0993 83.0384 46.0993H74.016C73.5375 46.0993 73.0785 45.9092 72.7401 45.5708C72.4017 45.2324 72.2116 44.7734 72.2116 44.2948C72.2116 43.8162 72.4017 43.3573 72.7401 43.0189C73.0785 42.6805 73.5375 42.4903 74.016 42.4903ZM63.1893 42.4903H66.7982C67.2768 42.4903 67.7357 42.6805 68.0741 43.0189C68.4125 43.3573 68.6027 43.8162 68.6027 44.2948C68.6027 44.7734 68.4125 45.2324 68.0741 45.5708C67.7357 45.9092 67.2768 46.0993 66.7982 46.0993H63.1893C62.7107 46.0993 62.2517 45.9092 61.9133 45.5708C61.5749 45.2324 61.3848 44.7734 61.3848 44.2948C61.3848 43.8162 61.5749 43.3573 61.9133 43.0189C62.2517 42.6805 62.7107 42.4903 63.1893 42.4903ZM46.9491 42.4903H55.9714C56.45 42.4903 56.909 42.6805 57.2474 43.0189C57.5858 43.3573 57.7759 43.8162 57.7759 44.2948C57.7759 44.7734 57.5858 45.2324 57.2474 45.5708C56.909 45.9092 56.45 46.0993 55.9714 46.0993H46.9491C46.4705 46.0993 46.0115 45.9092 45.6731 45.5708C45.3347 45.2324 45.1446 44.7734 45.1446 44.2948C45.1446 43.8162 45.3347 43.3573 45.6731 43.0189C46.0115 42.6805 46.4705 42.4903 46.9491 42.4903ZM45.1446 53.3171H50.558C51.0366 53.3171 51.4956 53.5072 51.834 53.8456C52.1724 54.184 52.3625 54.643 52.3625 55.1216C52.3625 55.6002 52.1724 56.0591 51.834 56.3975C51.4956 56.7359 51.0366 56.9261 50.558 56.9261H45.1446C44.666 56.9261 44.2071 56.7359 43.8687 56.3975C43.5303 56.0591 43.3402 55.6002 43.3402 55.1216C43.3402 54.643 43.5303 54.184 43.8687 53.8456C44.2071 53.5072 44.666 53.3171 45.1446 53.3171ZM45.1446 64.1439H61.3848C61.8634 64.1439 62.3223 64.334 62.6607 64.6724C62.9992 65.0108 63.1893 65.4698 63.1893 65.9484C63.1893 66.427 62.9992 66.8859 62.6607 67.2243C62.3223 67.5627 61.8634 67.7528 61.3848 67.7528H45.1446C44.666 67.7528 44.2071 67.5627 43.8687 67.2243C43.5303 66.8859 43.3402 66.427 43.3402 65.9484C43.3402 65.4698 43.5303 65.0108 43.8687 64.6724C44.2071 64.334 44.666 64.1439 45.1446 64.1439ZM88.4518 111.06C88.4518 111.539 88.2617 111.998 87.9233 112.336C87.5848 112.674 87.1259 112.864 86.6473 112.864H57.7759C57.2973 112.864 56.8383 112.674 56.4999 112.336C56.1615 111.998 55.9714 111.539 55.9714 111.06C55.9714 110.581 56.1615 110.122 56.4999 109.784C56.8383 109.446 57.2973 109.256 57.7759 109.256H59.9773L63.5862 94.8198H80.8369L84.4459 109.256H86.6473C87.1259 109.256 87.5848 109.446 87.9233 109.784C88.2617 110.122 88.4518 110.581 88.4518 111.06ZM111.91 76.7752V85.7975C111.91 87.2332 111.339 88.6101 110.324 89.6253C109.309 90.6405 107.932 91.2109 106.496 91.2109H37.9268C36.491 91.2109 35.1141 90.6405 34.0989 89.6253C33.0837 88.6101 32.5134 87.2332 32.5134 85.7975V76.7752H111.91Z" fill="#37B44C" fill-opacity="0.61"/>
<path d="M84.8428 0.987549H5.44641C4.01069 0.987549 2.63377 1.55789 1.61857 2.57309C0.603358 3.5883 0.03302 4.96522 0.03302 6.40094V74.9706C0.03302 76.4063 0.603358 77.7832 1.61857 78.7984C2.63377 79.8136 4.01069 80.384 5.44641 80.384H84.8428C86.2786 80.384 87.6555 79.8136 88.6707 78.7984C89.6859 77.7832 90.2562 76.4063 90.2562 74.9706V6.40094C90.2562 4.96522 89.6859 3.5883 88.6707 2.57309C87.6555 1.55789 86.2786 0.987549 84.8428 0.987549V0.987549ZM5.44641 4.59648H84.8428C85.3214 4.59648 85.7804 4.78659 86.1188 5.12499C86.4572 5.4634 86.6473 5.92237 86.6473 6.40094V11.8143H3.64195V6.40094C3.64195 5.92237 3.83206 5.4634 4.17046 5.12499C4.50887 4.78659 4.96784 4.59648 5.44641 4.59648V4.59648ZM84.8428 76.775H5.44641C4.96784 76.775 4.50887 76.5849 4.17046 76.2465C3.83206 75.9081 3.64195 75.4492 3.64195 74.9706V15.4233H86.6473V74.9706C86.6473 75.4492 86.4572 75.9081 86.1188 76.2465C85.7804 76.5849 85.3214 76.775 84.8428 76.775ZM30.33 30.9597L18.5649 46.0992L30.33 61.2386C30.5877 61.6188 30.6908 62.0829 30.6182 62.5365C30.5457 62.99 30.3028 63.3988 29.9393 63.6795C29.5757 63.9603 29.1188 64.0918 28.6617 64.0473C28.2045 64.0028 27.7815 63.7856 27.4789 63.4401L14.8477 47.1999C14.6048 46.8844 14.4731 46.4973 14.4731 46.0992C14.4731 45.701 14.6048 45.314 14.8477 44.9984L27.4789 28.7583C27.6172 28.5544 27.7957 28.3809 28.0035 28.2487C28.2113 28.1164 28.444 28.0281 28.6872 27.9891C28.9305 27.9502 29.1791 27.9615 29.4178 28.0223C29.6565 28.0831 29.8803 28.1921 30.0752 28.3427C30.2702 28.4932 30.4323 28.6821 30.5515 28.8977C30.6707 29.1133 30.7445 29.3509 30.7684 29.5961C30.7923 29.8413 30.7657 30.0888 30.6903 30.3233C30.6149 30.5578 30.4923 30.7744 30.33 30.9597V30.9597ZM75.4416 44.9984C75.6845 45.314 75.8162 45.701 75.8162 46.0992C75.8162 46.4973 75.6845 46.8844 75.4416 47.1999C62.3231 63.6385 63.0088 64.1438 61.3848 64.1438C60.9861 64.1426 60.599 64.0093 60.2841 63.7649C59.9068 63.4724 59.6608 63.0423 59.5999 62.5688C59.539 62.0953 59.6682 61.617 59.9593 61.2386L71.7244 46.0992L59.9593 30.9597C59.7015 30.5795 59.5984 30.1154 59.671 29.6618C59.7436 29.2083 59.9864 28.7995 60.35 28.5188C60.7135 28.2381 61.1704 28.1065 61.6276 28.151C62.0848 28.1955 62.5077 28.4127 62.8103 28.7583L75.4416 44.9984ZM52.3625 30.4364L41.5357 62.9168C41.3826 63.3714 41.0551 63.7466 40.6253 63.9598C40.1955 64.173 39.6987 64.2067 39.244 64.0536C38.7894 63.9004 38.4142 63.573 38.201 63.1432C37.9878 62.7134 37.9541 62.2165 38.1072 61.7619L48.934 29.2815C49.0098 29.0564 49.1293 28.8485 49.2855 28.6695C49.4417 28.4905 49.6316 28.3441 49.8444 28.2385C50.0572 28.133 50.2887 28.0703 50.5257 28.0543C50.7627 28.0382 51.0006 28.0689 51.2257 28.1447C51.4508 28.2206 51.6588 28.34 51.8377 28.4962C52.0167 28.6524 52.1631 28.8423 52.2687 29.0551C52.3743 29.2679 52.4369 29.4994 52.453 29.7364C52.4691 29.9734 52.4383 30.2113 52.3625 30.4364V30.4364Z" fill="#151A6A"/>
</svg>
